<svg width="117" height="31" viewBox="0 0 117 31" fill="none" xmlns="http://www.w3.org/2000/svg">
<path d="M16.0795 12.68L11.8675 26H8.84355L4.70355 12.716V26H0.743547V0.799998H4.70355L10.3555 17.468L16.0795 0.799998H20.0395V26H16.0795V12.68ZM40.3196 19.34C40.3196 21.764 39.5756 23.552 38.0876 24.704C36.6236 25.832 34.8596 26.396 32.7956 26.396C31.4996 26.396 30.2756 26.168 29.1236 25.712C27.9716 25.232 27.0236 24.464 26.2796 23.408C25.5596 22.352 25.1996 20.996 25.1996 19.34V7.748C25.1996 5.276 25.8716 3.404 27.2156 2.132C28.5836 0.859999 30.4556 0.223999 32.8316 0.223999C35.2076 0.223999 37.0436 0.895999 38.3396 2.24C39.6596 3.584 40.3196 5.432 40.3196 7.784V19.34ZM36.3596 9.08C36.3596 8.072 36.2756 7.244 36.1076 6.596C35.9396 5.948 35.5916 5.444 35.0636 5.084C34.5356 4.7 33.7676 4.508 32.7596 4.508C31.7516 4.508 30.9836 4.688 30.4556 5.048C29.9276 5.408 29.5796 5.912 29.4116 6.56C29.2436 7.184 29.1596 8.012 29.1596 9.044V18.656C29.1596 19.808 29.4476 20.72 30.0236 21.392C30.6236 22.04 31.5356 22.364 32.7596 22.364C33.8876 22.364 34.7636 22.016 35.3876 21.32C36.0356 20.624 36.3596 19.712 36.3596 18.584V9.08ZM60.5095 0.763999V19.304C60.5095 21.728 59.7655 23.492 58.2775 24.596C56.8135 25.7 55.0375 26.252 52.9495 26.252C50.8615 26.252 49.0735 25.7 47.5855 24.596C46.0975 23.492 45.3535 21.728 45.3535 19.304V0.763999H49.3135V17.72C49.3135 19.352 49.5535 20.54 50.0335 21.284C50.5375 22.004 51.4975 22.364 52.9135 22.364C54.3535 22.364 55.3135 22.004 55.7935 21.284C56.2975 20.54 56.5495 19.352 56.5495 17.72V0.763999H60.5095ZM78.0921 30.176C74.7321 30.272 72.5601 28.976 71.5761 26.288C69.9441 26.096 68.4921 25.472 67.2201 24.416C65.9721 23.336 65.3481 21.644 65.3481 19.34V7.748C65.3481 5.276 66.0201 3.404 67.3641 2.132C68.7321 0.859999 70.6041 0.223999 72.9801 0.223999C75.3561 0.223999 77.1921 0.895999 78.4881 2.24C79.8081 3.584 80.4681 5.432 80.4681 7.784V19.34C80.4681 21.356 79.9641 22.904 78.9561 23.984C77.9721 25.064 76.8561 25.724 75.6081 25.964C75.9201 26.324 76.2681 26.552 76.6521 26.648C77.0601 26.744 77.7081 26.792 78.5961 26.792L78.0921 30.176ZM76.5081 7.82C76.5081 6.956 76.2561 6.176 75.7521 5.48C75.2481 4.784 74.3001 4.436 72.9081 4.436C71.4681 4.436 70.5081 4.748 70.0281 5.372C69.5481 5.972 69.3081 6.788 69.3081 7.82V19.304C69.3081 19.952 69.4041 20.624 69.5961 21.32C69.7881 22.016 70.2321 22.364 70.9281 22.364C70.8801 21.98 70.8561 21.704 70.8561 21.536L70.8921 20.384V19.736H74.8521V20.348V21.104C74.8521 21.248 74.8401 21.428 74.8161 21.644C74.8161 21.836 74.8281 22.064 74.8521 22.328C75.5721 22.328 76.0281 22.016 76.2201 21.392C76.4121 20.768 76.5081 20.06 76.5081 19.268V7.82ZM95.2579 19.412H89.4619L88.0579 26H83.5939L89.4979 0.799998H95.0779L101.45 26H96.7339L95.2579 19.412ZM90.3979 15.2H94.3219L92.2699 7.424L90.3979 15.2ZM104.63 0.799998H116.654V4.76H108.59V11.132H113.63L112.334 14.912H108.59V26H104.63V0.799998Z" fill="url(#paint0_linear)"/>
<defs>
<linearGradient id="paint0_linear" x1="-4" y1="-5" x2="21.3487" y2="65.2473" gradientUnits="userSpaceOnUse">
<stop stop-color="#36F1CD"/>
<stop offset="1" stop-color="#39A0ED"/>
</linearGradient>
</defs>
</svg>
