<svg width="26" height="19" viewBox="0 0 26 19" fill="none" xmlns="http://www.w3.org/2000/svg">
<path d="M16.4402 12.5153H18.3152C18.6277 12.5153 18.9402 12.2028 18.9402 11.8903V5.32776C18.9402 5.01526 18.6277 4.70276 18.3152 4.70276H16.4402C16.1277 4.70276 15.8152 5.01526 15.8152 5.32776V11.8903C15.8152 12.2028 16.1277 12.5153 16.4402 12.5153ZM21.1277 12.5153H23.0027C23.3152 12.5153 23.6277 12.2028 23.6277 11.8903V0.640259C23.6277 0.327759 23.3152 0.0152588 23.0027 0.0152588H21.1277C20.8152 0.0152588 20.5027 0.327759 20.5027 0.640259V11.8903C20.5027 12.2028 20.8152 12.5153 21.1277 12.5153ZM7.06519 12.5153H8.94019C9.25269 12.5153 9.56519 12.2028 9.56519 11.8903V8.45276C9.56519 8.14026 9.25269 7.82776 8.94019 7.82776H7.06519C6.75269 7.82776 6.44019 8.14026 6.44019 8.45276V11.8903C6.44019 12.2028 6.75269 12.5153 7.06519 12.5153ZM11.7527 12.5153H13.6277C13.9402 12.5153 14.2527 12.2028 14.2527 11.8903V2.20276C14.2527 1.89026 13.9402 1.57776 13.6277 1.57776H11.7527C11.4402 1.57776 11.1277 1.89026 11.1277 2.20276V11.8903C11.1277 12.2028 11.4402 12.5153 11.7527 12.5153ZM24.4089 15.6403H3.31519V0.796509C3.31519 0.364868 2.96558 0.0152588 2.53394 0.0152588H0.971436C0.539795 0.0152588 0.190186 0.364868 0.190186 0.796509V17.2028C0.190186 18.0656 0.889893 18.7653 1.75269 18.7653H24.4089C24.8406 18.7653 25.1902 18.4156 25.1902 17.984V16.4215C25.1902 15.9899 24.8406 15.6403 24.4089 15.6403Z" fill="url(#paint0_linear)"/>
<defs>
<linearGradient id="paint0_linear" x1="0.190186" y1="0.0152588" x2="21.4377" y2="22.1752" gradientUnits="userSpaceOnUse">
<stop stop-color="#36F1CD"/>
<stop offset="1" stop-color="#39A0ED"/>
</linearGradient>
</defs>
</svg>
