<svg width="21" height="19" viewBox="0 0 21 19" fill="none" xmlns="http://www.w3.org/2000/svg">
<path d="M14.6781 3.19998L17.9667 6.48852C18.1052 6.62706 18.1052 6.8531 17.9667 6.99164L10.0042 14.9541L6.62083 15.3297C6.16875 15.3807 5.78594 14.9979 5.83698 14.5458L6.2125 11.1625L14.175 3.19998C14.3135 3.06143 14.5396 3.06143 14.6781 3.19998ZM20.5844 2.36508L18.8052 0.585913C18.251 0.0317464 17.3505 0.0317464 16.7927 0.585913L15.5021 1.87654C15.3635 2.01508 15.3635 2.24112 15.5021 2.37966L18.7906 5.6682C18.9292 5.80675 19.1552 5.80675 19.2937 5.6682L20.5844 4.37758C21.1385 3.81977 21.1385 2.91925 20.5844 2.36508V2.36508ZM14 12.7885V16.5H2.33333V4.83331H10.7115C10.8281 4.83331 10.9375 4.78591 11.0214 4.7057L12.4797 3.24737C12.7568 2.97029 12.5599 2.49998 12.1698 2.49998H1.75C0.783854 2.49998 0 3.28383 0 4.24998V17.0833C0 18.0495 0.783854 18.8333 1.75 18.8333H14.5833C15.5495 18.8333 16.3333 18.0495 16.3333 17.0833V11.3302C16.3333 10.9401 15.863 10.7469 15.5859 11.0203L14.1276 12.4786C14.0474 12.5625 14 12.6719 14 12.7885Z" fill="url(#paint0_linear)"/>
<defs>
<linearGradient id="paint0_linear" x1="0" y1="0.170288" x2="20.9964" y2="18.6503" gradientUnits="userSpaceOnUse">
<stop stop-color="#36F1CD"/>
<stop offset="1" stop-color="#39A0ED"/>
</linearGradient>
</defs>
</svg>
