<svg width="13" height="13" viewBox="0 0 12 12" fill="none" xmlns="http://www.w3.org/2000/svg">
<g clip-path="url(#clip0)">
<path d="M11.9025 4.70709L11.431 4.23563C11.3008 4.10542 11.0898 4.10542 10.9596 4.23563L10.7239 4.47125L10.1218 3.86917C10.2391 3.42521 10.1293 2.93375 9.78122 2.58563L8.83851 1.64292C7.53684 0.341255 5.42622 0.341255 4.12434 1.64292L6.00997 2.58563V2.97625C6.00997 3.3298 6.15038 3.66896 6.40059 3.91896L7.42434 4.94271C7.77247 5.29084 8.26393 5.40063 8.70788 5.28334L9.30997 5.88542L9.07434 6.12105C8.94413 6.25125 8.94413 6.4623 9.07434 6.5925L9.5458 7.06396C9.67601 7.19417 9.88705 7.19417 10.0173 7.06396L11.9029 5.17834C12.0327 5.04834 12.0327 4.8373 11.9025 4.70709ZM5.92913 4.39042C5.85205 4.31334 5.78663 4.22813 5.72392 4.14146L0.409342 9.10334C-0.123367 9.60084 -0.137742 10.4406 0.377467 10.956C0.892675 11.4715 1.73268 11.4571 2.23018 10.9242L7.19122 5.61021C7.10872 5.54959 7.02663 5.48792 6.95288 5.41417L5.92913 4.39042Z" fill="url(#paint0_linear)"/>
</g>
<defs>
<linearGradient id="paint0_linear" x1="0.000244141" y1="0.666672" x2="12.0003" y2="11.2263" gradientUnits="userSpaceOnUse">
<stop stop-color="#36F1CD"/>
<stop offset="1" stop-color="#39A0ED"/>
</linearGradient>
<clipPath id="clip0">
<rect width="12" height="12" fill="white"/>
</clipPath>
</defs>
</svg>
