<svg width="25" height="23" viewBox="0 0 25 23" fill="none" xmlns="http://www.w3.org/2000/svg">
<path d="M20.2496 5.50086C19.2484 5.48242 18.429 6.28954 18.429 7.25343V11.0011H18.0718V3.42883C18.0718 2.46494 17.2523 1.65782 16.2512 1.67626C15.281 1.69413 14.5003 2.45673 14.5003 3.39488V11.0011H14.1431V1.75288C14.1431 0.788994 13.3237 -0.0181257 12.3225 0.000309698C11.3524 0.0181865 10.5716 0.780786 10.5716 1.71893V11.0011H10.2145V3.4718C10.2145 2.50791 9.395 1.7008 8.39386 1.71923C7.4237 1.73711 6.64297 2.49971 6.64297 3.43785V13.5791L5.23008 11.709C4.65002 10.9412 3.53321 10.7715 2.73551 11.3298C1.93795 11.8882 1.7616 12.9633 2.34166 13.7311L7.94898 21.1527C8.14778 21.4158 8.40842 21.63 8.70962 21.7776C9.01081 21.9252 9.34402 22.0022 9.68201 22.0022H18.5032C19.4976 22.0022 20.3614 21.3437 20.5891 20.4119L21.7726 15.5706C21.924 14.9513 22.0004 14.3171 22.0004 13.6809V7.21948C22.0005 6.28133 21.2197 5.51873 20.2496 5.50086V5.50086Z" fill="url(#paint0_linear)"/>
<defs>
<linearGradient id="paint0_linear" x1="3.82862" y1="-1.15888e-07" x2="19.4695" y2="22.5682" gradientUnits="userSpaceOnUse">
<stop stop-color="#36F1CD"/>
<stop offset="1" stop-color="#39A0ED"/>
</linearGradient>
</defs>
</svg>
