<svg width="20" height="23" viewBox="0 0 20 23" fill="none" xmlns="http://www.w3.org/2000/svg">
<path d="M18.2496 5.50086C17.2484 5.48242 16.429 6.28954 16.429 7.25343V11.0011H16.0718V3.42883C16.0718 2.46494 15.2523 1.65782 14.2512 1.67626C13.281 1.69413 12.5003 2.45673 12.5003 3.39488V11.0011H12.1431V1.75288C12.1431 0.788994 11.3237 -0.0181257 10.3225 0.000309698C9.35237 0.0181865 8.57163 0.780786 8.57163 1.71893V11.0011H8.21448V3.4718C8.21448 2.50791 7.395 1.7008 6.39386 1.71923C5.4237 1.73711 4.64297 2.49971 4.64297 3.43785V13.5791L3.23008 11.709C2.65002 10.9412 1.53321 10.7715 0.73551 11.3298C-0.0620535 11.8882 -0.238397 12.9633 0.341661 13.7311L5.94898 21.1527C6.14778 21.4158 6.40842 21.63 6.70962 21.7776C7.01081 21.9252 7.34402 22.0022 7.68201 22.0022H16.5032C17.4976 22.0022 18.3614 21.3437 18.5891 20.4119L19.7726 15.5706C19.924 14.9513 20.0004 14.3171 20.0004 13.6809V7.21948C20.0005 6.28133 19.2197 5.51873 18.2496 5.50086V5.50086Z" fill="white"/>
</svg>
