<svg width="11" height="11" viewBox="0 0 9 9" fill="none" xmlns="http://www.w3.org/2000/svg">
<path d="M0 4.43176V0.84375C0 0.377754 0.377754 0 0.84375 0H4.43176C4.65554 1.17013e-06 4.87015 0.0888968 5.02838 0.247131L8.75287 3.97162C9.08237 4.30112 9.08237 4.83536 8.75287 5.16486L5.16486 8.75287C4.83536 9.08237 4.30112 9.08237 3.97162 8.75287L0.247131 5.02838C0.0888968 4.87015 1.17013e-06 4.65554 0 4.43176H0ZM1.96875 1.125C1.50275 1.125 1.125 1.50275 1.125 1.96875C1.125 2.43475 1.50275 2.8125 1.96875 2.8125C2.43475 2.8125 2.8125 2.43475 2.8125 1.96875C2.8125 1.50275 2.43475 1.125 1.96875 1.125Z" fill="url(#paint0_linear)"/>
<defs>
<linearGradient id="paint0_linear" x1="0" y1="0" x2="9.90743" y2="7.74965" gradientUnits="userSpaceOnUse">
<stop stop-color="#36F1CD"/>
<stop offset="1" stop-color="#39A0ED"/>
</linearGradient>
</defs>
</svg>
