<svg width="15" height="17" viewBox="0 0 15 17" fill="none" xmlns="http://www.w3.org/2000/svg">
<path d="M14.4062 1.06251H10.4219L10.1098 0.441607C10.0437 0.308866 9.94181 0.197207 9.81569 0.119191C9.68958 0.0411758 9.54419 -0.000100538 9.3959 5.82141e-06H5.60078C5.45282 -0.000562966 5.30769 0.0405595 5.18202 0.118662C5.05636 0.196764 4.95523 0.308687 4.89023 0.441607L4.57812 1.06251H0.59375C0.452854 1.06251 0.317728 1.11848 0.2181 1.21811C0.118471 1.31773 0.0625 1.45286 0.0625 1.59376L0.0625 2.65626C0.0625 2.79715 0.118471 2.93228 0.2181 3.03191C0.317728 3.13154 0.452854 3.18751 0.59375 3.18751H14.4062C14.5471 3.18751 14.6823 3.13154 14.7819 3.03191C14.8815 2.93228 14.9375 2.79715 14.9375 2.65626V1.59376C14.9375 1.45286 14.8815 1.31773 14.7819 1.21811C14.6823 1.11848 14.5471 1.06251 14.4062 1.06251ZM1.82891 15.5059C1.85424 15.9105 2.03283 16.2902 2.3283 16.5678C2.62377 16.8454 3.01393 17 3.41934 17H11.5807C11.9861 17 12.3762 16.8454 12.6717 16.5678C12.9672 16.2902 13.1458 15.9105 13.1711 15.5059L13.875 4.25001H1.125L1.82891 15.5059Z" fill="url(#paint0_linear)"/>
<defs>
<linearGradient id="paint0_linear" x1="0.0625" y1="0" x2="18.0364" y2="12.3019" gradientUnits="userSpaceOnUse">
<stop stop-color="#36F1CD"/>
<stop offset="1" stop-color="#39A0ED"/>
</linearGradient>
</defs>
</svg>
